<svg xmlns="http://www.w3.org/2000/svg" width="48" height="48" viewBox="0 0 48 48">
  <g id="_8209134_user_interface_cross_wrong_ui_icon" data-name="8209134_user_interface_cross_wrong_ui_icon" transform="translate(-59.44 -58.65)">
    <path id="Path_140" data-name="Path 140" d="M169.276,149.132,158.438,159.96,147.6,149.132a1.366,1.366,0,1,0-1.929,1.927l10.837,10.833-10.235,10.226a1.366,1.366,0,0,0,1.929,1.927l10.235-10.221,10.235,10.226a1.366,1.366,0,0,0,1.929-1.927l-10.235-10.231,10.848-10.828a1.366,1.366,0,1,0-1.929-1.927Z" transform="translate(-75.122 -78.845)" fill="red"/>
    <path id="Path_141" data-name="Path 141" d="M83.44,58.65a24,24,0,1,0,24,24A24.028,24.028,0,0,0,83.44,58.65Zm0,45.232A21.231,21.231,0,1,1,104.671,82.65,21.255,21.255,0,0,1,83.44,103.882Z" fill="red"/>
  </g>
</svg>
