<svg xmlns="http://www.w3.org/2000/svg" width="48" height="48" viewBox="0 0 48 48">
  <g id="_9025906_question_icon" data-name="9025906_question_icon" transform="translate(-4.564 -4.564)">
    <path id="Ellipse_21" data-name="Ellipse 21" d="M16-8A24,24,0,1,1-8,16,24.027,24.027,0,0,1,16-8Zm0,44.308A20.308,20.308,0,1,0-4.308,16,20.331,20.331,0,0,0,16,36.308Z" transform="translate(12.564 12.564)" fill="#fb0"/>
    <circle id="Ellipse_22" data-name="Ellipse 22" cx="3.076" cy="3.076" r="3.076" transform="translate(25.686 37.478)" fill="#fb0"/>
    <path id="Path_142" data-name="Path 142" d="M100.423,90.718a1.872,1.872,0,0,1-1.872-1.872V86.974a1.872,1.872,0,0,1,1.872-1.872,4.679,4.679,0,1,0-4.679-4.679,1.872,1.872,0,0,1-3.744,0,8.423,8.423,0,1,1,10.295,8.213v.21A1.872,1.872,0,0,1,100.423,90.718Z" transform="translate(-71.853 -56.505)" fill="#fb0"/>
  </g>
</svg>
